<svg xmlns="http://www.w3.org/2000/svg" viewBox="0 0 1027.11 153.23">
  <defs>
    <style>
      .cls-1{fill:#fff}
    </style>
    <linearGradient id="linear-gradient" x1="18.61" y1="140.01" x2="89.43" y2="140.01" gradientUnits="userSpaceOnUse">
      <stop offset="0" stop-color="#3e71b2"/>
      <stop offset="1" stop-color="#366199"/>
    </linearGradient>
    <linearGradient id="linear-gradient-2" y1="100.95" x2="142.71" y2="100.95" gradientUnits="userSpaceOnUse">
      <stop offset="0" stop-color="#5091e5"/>
      <stop offset="1" stop-color="#4781cc"/>
    </linearGradient>
    <linearGradient id="linear-gradient-3" x1="76.69" y1="105.18" x2="76.69" gradientUnits="userSpaceOnUse">
      <stop offset="0" stop-color="#f39c12"/>
      <stop offset="1" stop-color="#e67e22"/>
    </linearGradient>
    <linearGradient id="linear-gradient-4" x1="3.3" y1="123.66" x2="123.59" y2="123.66" gradientUnits="userSpaceOnUse">
      <stop offset="0" stop-color="#4781cc"/>
      <stop offset="1" stop-color="#3e71b2"/>
    </linearGradient>
    <linearGradient id="linear-gradient-5" x1="76.54" y1="99.58" x2="76.54" y2="31.05" gradientUnits="userSpaceOnUse">
      <stop offset="0" stop-color="#f1c40f"/>
      <stop offset="1" stop-color="#f39c12"/>
    </linearGradient>
  </defs>
  <g id="Layer_2" data-name="Layer 2">
    <g id="Layer_1-2" data-name="Layer 1">
      <path class="cls-1" d="M232.15 69.63c-12.13-4.31-15.35-5.74-19.09-8.44a16.63 16.63 0 0 1-6.79-13.83c0-11.49 8.39-19.57 20.17-19.57 7.68 0 14.28 3.23 17.67 8.44 2 3.41 2.68 6.28 2.86 12.39h15c-.54-20.83-14.28-34.3-35.34-34.3S191.1 28.15 191.1 48.44c0 9.16 3.22 17.06 9.28 22.63 5.36 4.85 10 7.19 24.1 12 18.74 6.28 24.1 11.13 24.1 21.54 0 12-9.46 20.3-22.85 20.3-13 0-20.35-7.18-21.06-20.83h-14.28v2.51a29.68 29.68 0 0 0 4.1 15.62c6.25 10.78 16.6 16.17 31.77 16.17 22.32 0 37.49-14 37.49-34.66a31 31 0 0 0-8-21.2c-4.85-5.16-10.92-8.4-23.6-12.89zM332.45 106.45c0 6.64-.89 10.06-3.57 13.29a19.45 19.45 0 0 1-14.64 6.26c-10.88 0-18.38-8.25-18.38-19.93v-52.6h-13.57v53c0 10.06 2.68 17.6 8.22 23 5.89 5.57 14.45 8.8 23.73 8.8s17.67-3.05 23.74-8.62 8.21-11.85 8.21-23.17v-53h-13.74zM409.18 51.49c-10.17 0-17.31 4-24.45 13.65V53.47h-13.57v82.79h13.57V85.8c0-6.83 1.43-10.78 5.35-15.09a20.42 20.42 0 0 1 15.71-7c5.53 0 10.35 2.15 12.85 5.57 2.14 2.87 3 6.82 3 14.18v52.8h13.56V80.41c0-11.31-1.78-17.06-7-22.09a28.54 28.54 0 0 0-19.02-6.83zM558.38 108.6l-25.52-92.13h-14.1l-26.42 91.78-27.13-91.78h-15.88l36.41 119.79h13.2l26.42-94.1 26.24 94.1h13.2l36.42-119.79h-15.53l-27.31 92.13zM622.08 21.32a8.57 8.57 0 0 0-8.75 8.8 8.53 8.53 0 0 0 8.57 8.8 8.8 8.8 0 0 0 .18-17.6zM615.11 53.47h13.57v82.79h-13.57zM694 51.49c-10.17 0-17.31 4-24.45 13.65V53.47H656v82.79h13.57V85.8C669.55 79 671 75 674.9 70.71a20.42 20.42 0 0 1 15.71-7c5.53 0 10.35 2.15 12.85 5.57 2.14 2.87 3 6.82 3 14.18v52.8h13.57V80.41c0-11.31-1.79-17.06-7-22.09A28.56 28.56 0 0 0 694 51.49zM808.39 66c-8-10.06-17.31-14.55-29.45-14.55-22.31 0-38.73 18.68-38.73 43.83s16.06 42.92 38.73 42.92c12.5 0 21.24-4.85 29.45-16.17v14.19H822V16.47h-13.61zm-27.48 60.35c-15.53 0-26.42-12.76-26.42-30.89 0-18.86 11.07-31.79 27.31-31.79 15.7 0 26.59 12.75 26.59 31.43 0 17.99-11.6 31.29-27.48 31.29zM862.02 47.9h-13.48v86.86h42.84V122.2h-29.36V47.9zM919.33 47.9h-13.47v86.86h42.84V122.2h-29.37V47.9zM1016.62 112.57c-6.25 7.62-12.87 11-21.47 11-16.44 0-28.37-13.54-28.37-32.19s11.72-32.32 27.87-32.32c8.46 0 14.23 2.87 22.05 11l1 1.06 9.4-8.81-1-1.1c-4.22-4.63-6.57-6.72-10.07-8.94a42.15 42.15 0 0 0-21.63-5.87c-24 0-41.35 18.92-41.35 45 0 12.1 4.19 23.78 11.5 32.05s17.7 12.82 29.72 12.82c13.29 0 23-4.54 31.63-14.74l.89-1-9.13-9.19z"/>
      <path d="M89.43 152.07a76 76 0 0 1-70.82-25.28l2.64.44 2.39.43 1.74.34 1.6.33h.24l1.89.41q3 .66 5.82 1.41l1.1.29c.88.23 1.76.48 2.62.73l1.38.41c5.56 1.64 10.7 3.5 15.63 5.48l1.59.65 2 .83 2.75 1.21c1 .44 2 .89 3.07 1.35 3.09 1.37 6.15 2.78 9.23 4.2 2.19 1 4.4 2 6.65 3l2.68 1.21q2.85 1.31 5.8 2.56z" fill="url(#linear-gradient)"/>
      <path d="M142.71 113.82a76.24 76.24 0 0 1-11.21 15.41c-2.31-.4-4.57-.83-6.79-1.31l-2.23-.49-1.34-.31-1.56-.38-.35-.08-2.13-.55q-1.16-.3-2.31-.63c-.77-.21-1.54-.43-2.32-.67l-2.15-.65-.3-.1c-.73-.22-1.45-.46-2.18-.7s-1.55-.51-2.32-.78l-2.34-.82c-.78-.28-1.57-.57-2.35-.87q-2.37-.89-4.78-1.89c-6.25-2.52-12.25-5.29-18.06-8-13.4-6.16-27.25-12.53-45.52-16.78-1-.23-2-.45-3-.66l-1.07-.16-.54-.11c-.79-.17-1.57-.32-2.36-.47l-1.23-.23-2.67-.47-.76-.12c-.74-.13-1.5-.25-2.26-.35l-.66-.1-2.16-.31c-1.44-.2-2.9-.38-4.37-.55q-3-.34-6.07-.61L4.43 90l-2.09-.16-1.21-.09A77.7 77.7 0 0 1 0 76.62c0-1.32 0-2.64.1-4 2.23.15 4.41.32 6.57.53h.14c1.08.1 2.15.21 3.22.34.86.09 1.72.19 2.56.31.34 0 .68.08 1 .13.95.12 1.89.25 2.83.39s2.09.31 3.12.49 2 .33 3 .52 2.1.39 3.14.6C45.54 80 59.5 86.42 74.28 93.22c10.9 5 22.13 10.19 35.79 14.23 1.49.44 3 .86 4.57 1.28l1.56.4c.65.16 1.3.33 2 .48l1.09.26.55.13c1 .25 2.1.48 3.15.7l2.61.55.53.1 2.73.51.6.1 2.77.47.49.08 3.13.46c1.13.16 2.28.31 3.42.45s2.13.26 3.21.37z" fill="url(#linear-gradient-2)"/>
      <path d="M152.29 76.62a76.45 76.45 0 0 1-5.49 28.56l-3-.29c-1-.1-1.95-.21-2.91-.33s-1.92-.23-2.86-.36l-2.05-.29-.42-.06-1-.15c-1.65-.25-3.27-.52-4.89-.82-.92-.16-1.83-.34-2.74-.52l-2.69-.56c.52-1 1-2 1.45-3 .11-.23.22-.47.31-.71q.33-.77.63-1.53c.24-.63.47-1.26.7-1.9s.42-1.23.61-1.85v-.07c.2-.64.38-1.28.54-1.93a.32.32 0 0 0 0-.09c.13-.49.25-1 .37-1.47.07-.3.14-.6.2-.9.12-.53.23-1 .32-1.58s.23-1.27.33-1.9c.09-.6.17-1.21.23-1.81 0-.25.06-.51.08-.77s.07-.68.1-1 .05-.62.07-.93c0-.52.06-1.05.08-1.58v-2.06a54.47 54.47 0 0 0-54.12-54.67c-.83 0-1.64 0-2.46.05h-.16l-1.29.08-1 .08q-.6 0-1.2.12l-.57.07c-.36 0-.72.08-1.07.14l-1.51.23-.74.13-.84.17-1.17.25c-.38.08-.77.17-1.15.27s-.77.19-1.14.3l-1.14.32-1.12.34a52.62 52.62 0 0 0-10 4.35l-1.06.61-.88.52a53 53 0 0 0-2.22 1.46l-1 .7c-.33.24-.66.48-1 .73s-.66.49-1 .75-.64.5-1 .77-.62.52-.93.79a51.232 51.232 0 0 0-3.54 3.37c-.29.29-.57.59-.84.89a51.59 51.59 0 0 0-3.92 4.8l-.56.78c-.26.39-.54.78-.8 1.19s-.45.68-.67 1-.43.7-.64 1.06c-.43.7-.84 1.42-1.23 2.15l-.54 1c-.58 1.13-1.12 2.27-1.61 3.45-.32.77-.63 1.54-.93 2.33-.22.59-.42 1.19-.62 1.79s-.39 1.21-.57 1.82l-.33 1.14v.18c-.1.38-.2.76-.29 1.14s-.17.74-.26 1.11v.2c-.09.4-.17.8-.25 1.21l-.06.33-3.17-.53c-1.07-.17-2.13-.33-3.2-.47a5.4 5.4 0 0 0-.58-.08c-1.17-.17-2.34-.32-3.54-.46l-.48-.06-2.36-.26-1.93-.2-1.15-.11-2-.17-2-.16-1.35-.1A76.09 76.09 0 0 1 76.14 0c41.99 0 76.15 34.37 76.15 76.62z" fill="url(#linear-gradient-3)"/>
      <path d="M123.59 137.07a77 77 0 0 1-19.49 11.3l-.32-.12c-.61-.21-1.22-.43-1.81-.67-1.21-.45-2.41-.9-3.58-1.36s-2.35-.94-3.51-1.42c-2-.83-4-1.68-5.91-2.53-2.53-1.12-5-2.25-7.48-3.39l-3.24-1.49c-4.16-1.92-8.37-3.86-12.72-5.74-.52-.24-1-.46-1.58-.68l-1.85-.79c-.69-.29-1.39-.58-2.1-.86l-1.68-.68c-1.28-.51-2.57-1-3.89-1.5l-2-.73c-2-.73-4-1.43-6.14-2.11h-.06l-2.1-.65L42 123c-.66-.21-1.31-.4-2-.58-1-.27-1.91-.53-2.89-.78-.45-.12-.91-.25-1.37-.36l-1.61-.4-1.89-.45-1.9-.43-2.07-.44-.44-.09-2.36-.47c-.85-.17-1.71-.32-2.57-.48l-2.64-.44-1.71-.27-1.78-.26-2.24-.31c-.55-.07-1.1-.15-1.67-.21l-1.57-.19A76.4 76.4 0 0 1 3.3 99h.55c2.94.24 5.8.53 8.6.9.71.08 1.4.17 2.09.27s1.41.19 2.11.3l1.32.2 1.61.25c.86.14 1.73.3 2.59.46l2.09.38c.8.15 1.6.31 2.38.48l.89.19 3 .67c17.43 4.07 30.31 10 43.94 16.31 5.92 2.73 12 5.56 18.49 8.18l2.78 1.1 2.21.85 2.47.91c.88.32 1.75.62 2.63.92l2.29.78 3.69 1.17c1.23.37 2.45.72 3.68 1.07 1.55.44 3.1.84 4.65 1.23l1.76.43c1.3.31 2.58.62 3.89.9h.07z" fill="url(#linear-gradient-4)"/>
      <path d="M121.44 76.62v1.71a.34.34 0 0 1 0 .1c0 .52-.05 1-.09 1.57a.49.49 0 0 1 0 .12c0 .54-.08 1.09-.15 1.63-.05.49-.11 1-.19 1.45a2.9 2.9 0 0 1-.06.41c-.05.39-.12.77-.2 1.16 0 .18-.06.37-.1.56s-.09.49-.15.74l-.21 1c-.12.49-.24 1-.37 1.45-.41 1.51-.89 3-1.44 4.45-.09.24-.19.48-.29.72s-.24.59-.37.89c0 .12-.1.24-.16.36-.19.44-.39.89-.59 1.32l-.06.11c-.19.41-.39.81-.6 1.21-.06.12-.12.24-.19.36-.19.36-.39.72-.59 1.08l-.3.54-2.64-.75-2.56-.78h-.16c-2.48-.78-4.87-1.59-7.21-2.44-.8-.29-1.6-.58-2.38-.88-1.41-.53-2.8-1.08-4.19-1.64q-3.19-1.29-6.32-2.66c-.69-.3-1.39-.6-2.07-.91-3.31-1.5-6.53-2.95-9.8-4.5l-5.51-2.52-2.79-1.22c-2.1-.94-4.23-1.88-6.4-2.79l-2.14-.89a.42.42 0 0 0-.14-.06q-1.37-.57-2.76-1.11a1.53 1.53 0 0 0-.26-.11c-1-.38-1.93-.76-2.91-1.13S53 74.39 52 74l-1.58-.56c-1.07-.37-2.15-.74-3.24-1.09l-1.56-.51c-1.14-.36-2.3-.72-3.47-1.06l-1.67-.49c-2.82-.8-5.74-1.55-8.8-2.24 0-.11 0-.23.07-.34.07-.36.14-.71.22-1.06s.15-.69.24-1c.08-.34.17-.69.27-1 .21-.8.45-1.59.7-2.37.1-.32.21-.63.32-.94a44.7 44.7 0 0 1 2.5-5.86c.23-.46.47-.91.72-1.36.55-1 1.12-1.9 1.72-2.81.19-.29.38-.57.58-.85l.28-.46.46-.65a47.2 47.2 0 0 1 4.53-5.23c.45-.45.92-.89 1.39-1.33.26-.23.5-.46.76-.68.71-.61 1.42-1.19 2.15-1.75l.77-.58c.2-.15.4-.3.61-.44l.51-.35c.28-.2.55-.39.84-.57a44.43 44.43 0 0 1 4.44-2.56q.47-.24.93-.45l.61-.29a45.79 45.79 0 0 1 5.16-2c.34-.1.67-.21 1-.3s.64-.19 1-.27l.68-.17 1-.23c.52-.12 1-.23 1.57-.33l.94-.16 1.21-.19.9-.11c.77-.09 1.54-.17 2.33-.22h1c.69 0 1.37-.05 2.06-.05a45.49 45.49 0 0 1 45.29 45.53z" fill="url(#linear-gradient-5)"/>
    </g>
  </g>
</svg>
